<?xml version="1.0" standalone="no"?>
<!DOCTYPE svg PUBLIC "-//W3C//DTD SVG 20010904//EN"
 "http://www.w3.org/TR/2001/REC-SVG-20010904/DTD/svg10.dtd">
<svg version="1.0" xmlns="http://www.w3.org/2000/svg"
 width="1280.000000pt" height="1123.000000pt" viewBox="0 0 1280.000000 1123.000000"
 preserveAspectRatio="xMidYMid meet">
<metadata>
Created by potrace 1.15, written by Peter Selinger 2001-2017
</metadata>
<g transform="translate(0.000000,1123.000000) scale(0.100000,-0.100000)"
fill="#000000" stroke="none">
<path d="M7945 11224 c-328 -32 -739 -121 -1140 -244 -876 -270 -1766 -713
-2830 -1412 -497 -326 -873 -601 -1420 -1039 -154 -123 -386 -306 -515 -406
-362 -279 -538 -430 -741 -632 -216 -217 -340 -366 -470 -567 -282 -434 -377
-570 -410 -582 -5 -2 -9 16 -9 40 0 108 -42 338 -76 415 l-17 38 -13 -75 c-7
-41 -18 -205 -23 -365 -14 -399 -21 -519 -30 -528 -7 -7 -65 160 -123 355 -13
43 -26 78 -30 78 -11 0 -10 -191 2 -311 6 -57 24 -207 41 -332 17 -126 29
-237 27 -248 -2 -11 -30 43 -66 126 -35 80 -72 155 -83 168 l-19 22 6 -35 c39
-232 125 -511 250 -810 56 -134 252 -530 262 -530 4 0 22 51 40 113 170 579
630 1366 1083 1853 878 944 982 1051 1233 1281 93 85 241 212 329 281 398 315
617 493 817 662 654 554 1236 979 1767 1290 172 102 580 305 778 389 438 186
900 343 1633 554 122 36 222 63 222 62 0 -2 -28 -19 -62 -38 -64 -35 -217
-137 -206 -137 4 0 53 16 111 35 278 93 425 125 507 110 34 -7 31 -8 -94 -71
-131 -66 -215 -119 -276 -174 l-35 -31 96 5 c68 4 152 20 295 56 109 27 234
57 278 65 81 16 286 21 286 7 0 -4 -38 -20 -85 -36 -92 -31 -285 -121 -285
-132 0 -11 113 4 275 36 83 16 166 30 185 30 30 0 20 -7 -75 -54 -61 -30 -124
-65 -141 -78 l-31 -23 56 -1 c124 -3 320 -100 747 -371 61 -39 246 -139 410
-222 316 -159 571 -298 924 -503 118 -68 269 -153 335 -188 527 -277 665 -355
830 -468 61 -41 133 -93 160 -116 149 -123 60 -31 -320 333 -683 654 -1198
1079 -1780 1466 -753 501 -1406 778 -2050 870 -106 15 -447 27 -530 19z"/>
<path d="M7980 6291 c-21 -43 -67 -146 -101 -228 -52 -126 -113 -259 -125
-272 -1 -2 -51 3 -109 9 -124 15 -117 -3 -61 158 34 98 66 239 66 286 0 11
-31 -56 -69 -150 -38 -93 -80 -193 -94 -220 l-25 -50 -139 18 c-76 9 -156 20
-179 23 l-41 6 22 87 c12 48 25 110 29 137 l6 50 -33 -80 c-19 -44 -43 -102
-54 -130 l-20 -50 -51 0 c-28 1 -54 4 -58 7 -3 4 1 38 10 77 25 109 18 114
-20 14 l-36 -91 -77 5 c-42 3 -79 10 -82 16 -4 5 -8 5 -10 1 -2 -5 -42 -8 -88
-6 l-83 4 4 33 c2 19 0 31 -4 29 -4 -3 -8 -16 -8 -29 0 -13 -5 -27 -10 -30 -6
-4 -150 -7 -321 -8 l-311 -3 6 56 c3 37 2 47 -3 30 -5 -14 -9 -40 -10 -58 -1
-18 -7 -34 -13 -36 -7 -2 -74 -13 -148 -25 -605 -94 -1326 -419 -1975 -890
-477 -346 -913 -816 -1254 -1354 -273 -431 -404 -698 -574 -1178 -114 -320
-191 -595 -404 -1439 -191 -761 -195 -777 -239 -873 -20 -43 -34 -81 -30 -84
3 -4 6 -1 6 5 0 7 4 12 10 12 6 0 6 -9 -1 -26 -17 -46 -3 -37 46 30 45 60 55
68 169 124 141 70 681 288 808 326 99 31 705 165 908 202 74 13 261 40 415 59
154 20 411 53 570 75 160 21 353 46 431 55 l141 17 159 -27 c231 -38 348 -52
539 -65 318 -22 437 1 1115 215 665 211 967 293 1239 339 129 22 184 26 354
26 152 0 217 -4 266 -16 63 -16 150 -55 199 -90 12 -9 22 -14 22 -10 0 16
-158 121 -243 161 -217 103 -551 148 -809 110 -52 -8 110 69 222 105 129 43
205 59 340 76 300 36 624 -1 938 -105 78 -26 142 -46 142 -45 0 6 -172 105
-245 141 -161 80 -335 138 -508 169 -98 18 -373 24 -417 10 -16 -5 -22 -5 -15
2 12 11 256 100 375 136 305 91 535 127 803 127 233 0 459 -36 628 -101 29
-11 55 -18 57 -16 7 8 -143 108 -222 148 -301 152 -742 205 -1090 132 -38 -8
-71 -13 -73 -11 -5 6 174 87 251 114 431 147 1066 142 1575 -13 45 -14 85 -24
87 -22 8 8 -134 94 -206 124 -95 41 -228 80 -350 102 -74 13 -155 17 -371 17
l-277 0 82 23 c273 75 497 125 724 159 183 28 648 25 837 -5 77 -12 151 -25
165 -28 38 -9 -51 42 -150 86 -330 146 -674 185 -1015 116 -39 -8 -52 -14 350
157 396 168 519 215 680 256 126 33 308 61 408 62 l62 0 -85 19 c-47 10 -135
34 -197 54 -182 57 -265 69 -433 62 -200 -8 -365 -47 -487 -116 -66 -37 -69
-32 -6 11 26 18 146 114 267 214 445 364 618 486 806 567 55 23 60 28 35 28
-17 0 -45 -4 -63 -9 -17 -5 -32 -8 -32 -6 0 2 35 22 78 45 171 90 352 242 480
403 34 43 62 81 62 84 0 3 -17 -10 -37 -29 -59 -53 -160 -121 -262 -177 -98
-55 -131 -64 -59 -16 148 97 334 267 444 406 182 230 284 439 571 1169 4 8
-25 -25 -64 -75 -361 -463 -740 -715 -1167 -774 -86 -12 -375 -15 -538 -5
l-106 7 76 91 c92 111 161 215 212 321 40 83 94 234 87 242 -3 2 -17 -18 -33
-44 -103 -178 -296 -386 -493 -532 l-75 -55 -165 22 c-92 13 -167 26 -169 31
-1 4 -13 6 -25 4 -21 -4 -386 53 -395 61 -2 3 1 13 7 24 19 35 12 38 -13 7
l-23 -29 -63 12 c-71 13 -77 16 -62 35 24 28 81 157 96 213 15 62 32 214 23
214 -3 0 -19 -29 -35 -65 -48 -101 -115 -198 -194 -280 l-73 -75 -180 31 c-99
18 -181 33 -183 34 -2 2 17 34 41 71 49 75 121 214 114 220 -2 2 -14 -15 -27
-39 -35 -65 -132 -208 -137 -203 -3 2 0 13 5 23 15 27 122 326 119 330 -2 1
-14 -16 -27 -40 -51 -91 -254 -346 -267 -334 -2 2 17 39 42 81 24 42 43 76 41
76 -2 0 -24 -28 -49 -63 -65 -90 -63 -90 -143 -77 -38 6 -82 13 -97 16 l-28 6
27 36 27 37 -37 -35 c-37 -35 -42 -36 -113 -24 l-33 5 20 39 c29 57 59 135 85
220 39 132 37 137 -19 32 -48 -90 -101 -171 -165 -252 l-19 -24 -209 28 c-114
16 -210 30 -211 31 -2 2 14 43 36 92 45 100 84 223 105 333 21 103 29 170 23
170 -3 0 -24 -36 -46 -79z m2840 -2133 c-110 -60 -261 -152 -380 -232 l-105
-70 133 141 132 140 68 12 c37 7 99 20 137 31 98 26 99 25 15 -22z m-6245
-3022 c127 -14 293 -30 370 -36 77 -7 160 -18 185 -26 42 -13 34 -14 -115 -10
-158 5 -423 38 -610 75 -123 25 -97 25 170 -3z m-2805 -191 c-6 -15 -13 -25
-16 -23 -2 3 1 17 7 32 16 34 23 27 9 -9z"/>
<path d="M6772 6135 c0 -16 2 -22 5 -12 2 9 2 23 0 30 -3 6 -5 -1 -5 -18z"/>
<path d="M6563 6105 c0 -22 2 -30 4 -17 2 12 2 30 0 40 -3 9 -5 -1 -4 -23z"/>
<path d="M9676 5645 c-9 -26 -7 -32 5 -12 6 10 9 21 6 23 -2 3 -7 -2 -11 -11z"/>
<path d="M9867 5565 c-9 -19 -15 -35 -12 -35 7 0 37 61 33 66 -3 2 -12 -12
-21 -31z"/>
</g>
</svg>
